<svg width="46.000000" height="45.445557" viewBox="0 0 46 45.4456" fill="none" xmlns="http://www.w3.org/2000/svg" xmlns:xlink="http://www.w3.org/1999/xlink">
	<desc>
			Created with Pixso.
	</desc>
	<defs/>
	<path id="Vector" d="M31.72 0.01C33.17 -0.13 34.53 0.76 34.9 2.15L36.23 7.14C19.37 7.63 7.97 18.74 7.25 35.28L2.14 33.88C0.73 33.49 -0.15 32.14 0.02 30.7C1.89 14.65 15.38 1.53 31.72 0.01ZM36.98 9.95L45.95 43.64C46.01 43.88 46.01 44.14 45.94 44.38C45.88 44.63 45.74 44.85 45.56 45.03C45.38 45.2 45.15 45.33 44.91 45.39C44.66 45.46 44.4 45.46 44.15 45.39L10.1 36.06C10.48 20.54 21.16 10.13 36.98 9.95L36.98 9.95ZM34.5 36.92C35.06 36.92 35.62 36.75 36.09 36.44C36.57 36.13 36.93 35.69 37.15 35.17C37.37 34.65 37.43 34.08 37.32 33.53C37.2 32.98 36.93 32.47 36.53 32.07C36.13 31.68 35.61 31.4 35.06 31.29C34.5 31.19 33.92 31.24 33.4 31.46C32.87 31.67 32.42 32.04 32.11 32.5C31.79 32.97 31.62 33.52 31.62 34.08C31.62 34.83 31.92 35.56 32.46 36.09C33 36.62 33.73 36.92 34.5 36.92ZM30.18 23.43C30.75 23.43 31.31 23.26 31.78 22.95C32.25 22.64 32.62 22.19 32.84 21.68C33.06 21.16 33.11 20.59 33 20.03C32.89 19.48 32.62 18.98 32.22 18.58C31.81 18.18 31.3 17.91 30.74 17.8C30.19 17.69 29.61 17.75 29.08 17.96C28.56 18.18 28.11 18.54 27.79 19.01C27.48 19.48 27.31 20.03 27.31 20.59C27.31 21.34 27.61 22.06 28.15 22.6C28.69 23.13 29.42 23.43 30.18 23.43ZM20.84 32.66C21.41 32.66 21.96 32.49 22.44 32.18C22.91 31.87 23.28 31.43 23.5 30.91C23.71 30.39 23.77 29.82 23.66 29.27C23.55 28.71 23.27 28.21 22.87 27.81C22.47 27.41 21.96 27.14 21.4 27.03C20.84 26.92 20.26 26.98 19.74 27.2C19.21 27.41 18.76 27.77 18.45 28.24C18.13 28.71 17.96 29.26 17.96 29.82C17.96 30.57 18.27 31.3 18.81 31.83C19.35 32.36 20.08 32.66 20.84 32.66Z" fill="#FF8C42" fill-opacity="1.000000" fill-rule="nonzero"/>
</svg>
