<svg width="19.000000" height="17.850647" viewBox="0 0 19 17.8506" fill="none" xmlns="http://www.w3.org/2000/svg" xmlns:xlink="http://www.w3.org/1999/xlink">
	<desc>
			Created with Pixso.
	</desc>
	<defs/>
	<path id="Vector" d="M0.25 15.43L3.95 11.95C4.12 11.8 4.35 11.71 4.58 11.71L5.19 11.71C4.17 10.48 3.56 8.93 3.56 7.25C3.56 3.24 7.01 0 11.28 0C15.54 0 19 3.24 19 7.25C19 11.25 15.54 14.5 11.28 14.5C9.48 14.5 7.84 13.93 6.53 12.96L6.53 13.53C6.53 13.75 6.43 13.97 6.27 14.12L2.57 17.6C2.22 17.93 1.65 17.93 1.31 17.6L0.26 16.61C-0.09 16.29 -0.09 15.76 0.25 15.43ZM11.28 12.27C14.23 12.27 16.62 10.02 16.62 7.25C16.62 4.47 14.23 2.23 11.28 2.23C8.32 2.23 5.93 4.47 5.93 7.25C5.93 10.02 8.32 12.27 11.28 12.27ZM11.27 3.9C12.79 3.9 14.02 5.05 14.02 6.47C14.02 7.62 12.22 9.72 11.54 10.48C11.51 10.51 11.47 10.54 11.42 10.56C11.37 10.58 11.33 10.59 11.27 10.59C11.22 10.59 11.18 10.58 11.13 10.56C11.08 10.54 11.04 10.51 11.01 10.48C10.33 9.72 8.53 7.62 8.53 6.47C8.53 5.05 9.76 3.9 11.27 3.9ZM11.27 7.25C11.77 7.25 12.17 6.87 12.17 6.41C12.17 5.95 11.77 5.57 11.27 5.57C10.78 5.57 10.38 5.95 10.38 6.41C10.38 6.87 10.78 7.25 11.27 7.25Z" fill="#FFFFFF" fill-opacity="1.000000" fill-rule="nonzero"/>
</svg>
